<mxfile host="app.diagrams.net" modified="2021-11-02T18:39:48.373Z" agent="5.0 (Windows NT 10.0; Win64; x64) AppleWebKit/537.36 (KHTML, like Gecko) Chrome/95.0.4638.69 Safari/537.36" etag="G4cd0TXt8kAISS5CZPe_" version="15.6.6" type="github">
  <diagram id="11DLtLcQ0q4nKdQ-IW-K" name="Page-1">
    <mxGraphModel dx="1220" dy="1112" grid="1" gridSize="10" guides="1" tooltips="1" connect="1" arrows="1" fold="1" page="1" pageScale="1" pageWidth="1169" pageHeight="827" math="0" shadow="0">
      <root>
        <mxCell id="0" />
        <mxCell id="1" parent="0" />
      </root>
    </mxGraphModel>
  </diagram>
</mxfile>
